<mxfile host="app.diagrams.net" modified="2023-08-10T03:12:14.843Z" agent="Mozilla/5.0 (Windows NT 10.0; Win64; x64) AppleWebKit/537.36 (KHTML, like Gecko) Chrome/115.0.0.0 Safari/537.36" version="21.6.7" etag="j7F6DxnineFAp3_AuLVU" type="github">
  <diagram name="페이지-1" id="sZ7N61KfeH8idq5uGCHM">
    <mxGraphModel>
      <root>
        <mxCell id="0" />
        <mxCell id="1" parent="0" />
      </root>
    </mxGraphModel>
  </diagram>
</mxfile>
